<svg xmlns="http://www.w3.org/2000/svg" xmlns:xlink="http://www.w3.org/1999/xlink" width="1920" viewBox="0 0 1440 809.999993" height="1080" preserveAspectRatio="xMidYMid meet"><defs><g></g><clipPath id="7726dc261b"><path d="M 334 220 L 419 220 L 419 581.449219 L 334 581.449219 Z M 334 220 " clip-rule="nonzero"></path></clipPath><clipPath id="112d94a0e7"><path d="M 0 219.949219 L 82 219.949219 L 82 579 L 0 579 Z M 0 219.949219 " clip-rule="nonzero"></path></clipPath><clipPath id="609285cf5d"><path d="M 426 372 L 440.25 372 L 440.25 425 L 426 425 Z M 426 372 " clip-rule="nonzero"></path></clipPath></defs><path fill="#ea7315" d="M 326.921875 525.933594 L 92.390625 525.933594 L 92.390625 297.625 L 326.921875 297.625 Z M 116.324219 411.925781 L 117.160156 411.925781 C 117.160156 440.304688 117.21875 468.75 117.085938 497.164062 C 117.085938 500.746094 118.582031 501.269531 121.589844 501.261719 C 148.769531 501.195312 175.945312 501.261719 203.121094 501.210938 C 208.050781 501.210938 208.710938 499.800781 206.714844 495.152344 C 204.714844 490.503906 202.960938 485.660156 201.316406 480.828125 C 199.789062 476.320312 198.960938 471.53125 197.082031 467.183594 C 193.957031 459.945312 193.339844 453.132812 198.042969 446.316406 C 198.710938 445.355469 199.394531 443.8125 199.085938 442.875 C 197.5 437.867188 196.113281 432.703125 193.65625 428.117188 C 190.730469 422.652344 188.417969 417.402344 188.644531 410.949219 C 188.851562 404.855469 179.371094 396.761719 173.5 397.59375 C 168.304688 398.457031 163.183594 399.632812 158.136719 401.117188 C 151.160156 403.054688 142.03125 399.875 138.152344 393.605469 C 135.363281 389.121094 132.789062 384.5 130.285156 379.847656 C 129.65625 378.589844 129.398438 377.253906 129.507812 375.851562 C 130.015625 368.847656 130.34375 361.8125 131.460938 354.902344 C 132.082031 351.242188 133.476562 347.902344 135.640625 344.886719 C 140.183594 338.699219 145.4375 333.050781 150.234375 327.046875 C 151.402344 325.585938 151.953125 323.617188 152.789062 321.890625 C 150.917969 321.273438 149.054688 320.160156 147.175781 320.121094 C 138.539062 319.917969 129.898438 320.042969 121.277344 320.003906 C 118.679688 320.003906 117.175781 320.769531 117.101562 323.75 C 117 328.925781 116.359375 334.09375 116.34375 339.265625 C 116.265625 363.566406 116.324219 387.71875 116.324219 411.925781 Z M 286.425781 383.296875 C 284.003906 393.488281 280.894531 402.738281 273.152344 409.832031 C 270.417969 412.335938 268.089844 415.289062 265.28125 417.695312 C 258.957031 423.109375 257.878906 430.003906 260.542969 437.175781 C 264.246094 447.125 261.539062 455.085938 254.773438 462.417969 C 253.664062 463.554688 252.8125 464.863281 252.222656 466.339844 C 248.304688 477.339844 241.214844 486.371094 234.605469 495.785156 C 234.183594 496.40625 233.890625 497.082031 233.722656 497.8125 C 233.558594 498.542969 233.53125 499.277344 233.644531 500.019531 C 233.804688 500.679688 236.007812 501.160156 237.296875 501.171875 C 257.886719 501.296875 278.480469 501.253906 299.070312 501.4375 C 302.671875 501.4375 303.75 499.933594 303.734375 496.703125 C 303.734375 492.933594 303.949219 489.191406 303.949219 485.394531 C 303.949219 436.5 303.949219 387.605469 303.949219 338.707031 C 304.023438 334.933594 303.902344 331.167969 303.589844 327.40625 C 302.875 320.378906 302.539062 320.136719 295.53125 320.128906 C 262.828125 320.09375 230.128906 320.09375 197.433594 320.128906 C 196.179688 320.128906 194.492188 319.753906 193.78125 320.402344 C 192.886719 321.238281 192.234375 323.960938 192.4375 324.058594 C 196.753906 326.328125 201.925781 330.902344 205.484375 329.902344 C 213.839844 327.546875 221.414062 328.316406 229.277344 330.527344 C 232.953125 331.5625 238.089844 331.65625 239.925781 334.132812 C 245.414062 341.410156 250.027344 349.199219 253.769531 357.503906 C 257.726562 366.582031 263.09375 374.730469 269.867188 381.953125 C 270.753906 382.894531 272.648438 383.1875 274.101562 383.253906 C 277.960938 383.4375 281.839844 383.320312 286.425781 383.320312 Z M 286.425781 383.296875 " fill-opacity="1" fill-rule="nonzero"></path><g clip-path="url(#7726dc261b)"><path fill="#ea7315" d="M 418.28125 220.109375 L 418.28125 581.433594 C 408.757812 581.433594 400.011719 581.492188 391.265625 581.367188 C 390.007812 581.195312 388.882812 580.722656 387.882812 579.949219 C 371.816406 569.613281 355.8125 559.199219 339.714844 548.929688 C 337.074219 547.261719 335.730469 545.351562 335.738281 542.144531 C 335.738281 537.753906 335.152344 533.363281 335.128906 528.972656 C 334.917969 486.53125 334.660156 444.085938 334.660156 401.644531 C 334.660156 365.027344 335.050781 328.398438 335.109375 291.773438 C 335.074219 290.613281 335.15625 289.464844 335.355469 288.320312 C 335.558594 287.175781 335.875 286.066406 336.304688 284.988281 C 336.738281 283.914062 337.273438 282.890625 337.917969 281.925781 C 338.558594 280.957031 339.296875 280.066406 340.121094 279.253906 C 357.691406 260.847656 374.964844 242.152344 392.25 223.464844 C 392.746094 222.871094 393.300781 222.34375 393.921875 221.882812 C 394.546875 221.421875 395.214844 221.042969 395.925781 220.742188 C 396.640625 220.445312 397.378906 220.234375 398.144531 220.117188 C 398.90625 219.996094 399.675781 219.96875 400.445312 220.035156 C 406.511719 220.300781 412.589844 220.109375 418.28125 220.109375 Z M 390.394531 546.527344 C 390.878906 543.070312 391.488281 540.683594 391.5 538.304688 C 391.617188 507.523438 391.683594 476.738281 391.699219 445.957031 C 391.699219 437.609375 391.632812 429.3125 391.699219 420.992188 C 391.699219 417.652344 390.371094 415.867188 386.914062 416.359375 C 379.191406 417.445312 371.449219 418.453125 363.804688 419.921875 C 362.503906 420.171875 360.839844 422.425781 360.65625 423.945312 C 360.054688 429.101562 359.757812 434.277344 359.769531 439.472656 C 359.664062 466.179688 360.003906 492.890625 359.429688 519.601562 C 359.261719 527.363281 361.199219 532.003906 368.5 535.082031 C 375.800781 538.164062 382.492188 542.304688 390.394531 546.527344 Z M 391.105469 266.515625 C 388.917969 267.652344 387.964844 267.910156 387.347656 268.511719 C 378.835938 276.859375 370.296875 285.207031 361.949219 293.769531 C 360.957031 294.796875 360.664062 296.867188 360.65625 298.453125 C 360.472656 323.746094 360.347656 349.046875 360.28125 374.347656 C 360.28125 379.691406 360.28125 385.03125 360.28125 390.382812 C 360.28125 393.394531 361.214844 395.164062 364.882812 394.171875 C 371.925781 392.261719 379.085938 390.660156 386.144531 388.898438 C 389.199219 388.136719 390.886719 386.542969 390.839844 382.964844 C 390.714844 374.015625 391.054688 365.066406 391.074219 356.109375 C 391.109375 331.121094 391.109375 306.132812 391.074219 281.148438 Z M 391.105469 266.515625 " fill-opacity="1" fill-rule="nonzero"></path></g><g clip-path="url(#112d94a0e7)"><path fill="#ea7315" d="M 1.460938 220.089844 C 8.476562 220.089844 15.09375 219.648438 21.59375 220.308594 C 24.167969 220.574219 26.882812 222.886719 28.851562 224.957031 C 39.519531 236.058594 49.945312 247.386719 60.496094 258.59375 C 64.875 263.253906 69.125 268.042969 73.863281 272.359375 C 79.800781 277.816406 81.5 284.511719 81.429688 292.234375 C 81.273438 310.769531 81.382812 329.316406 81.390625 347.863281 C 81.390625 411.984375 81.421875 476.101562 81.488281 540.214844 C 81.488281 543.824219 80.445312 545.792969 77.3125 547.546875 C 60.011719 557.234375 42.878906 567.175781 25.613281 576.949219 C 23.675781 577.953125 21.617188 578.480469 19.4375 578.535156 C 14.578125 578.761719 9.679688 578.351562 4.835938 578.6875 C 0.894531 578.960938 0.148438 577.375 0.148438 573.796875 C 0.351562 473.535156 0.496094 373.269531 0.582031 273.003906 C 0.582031 256.816406 0.953125 240.632812 1.167969 224.449219 C 1.183594 223.214844 1.328125 221.988281 1.460938 220.089844 Z M 59.660156 344.109375 L 60.773438 344.109375 C 60.773438 329.511719 60.847656 314.894531 60.679688 300.304688 C 60.660156 299.328125 60.472656 298.386719 60.117188 297.472656 C 59.765625 296.5625 59.269531 295.742188 58.625 295.003906 C 49.703125 285.890625 40.648438 276.984375 31.535156 268.121094 C 30.304688 266.925781 28.433594 266.398438 26.863281 265.566406 C 26.472656 267.152344 25.746094 268.746094 25.738281 270.339844 C 25.621094 302.058594 25.5625 333.773438 25.5625 365.492188 C 25.453125 370.832031 25.648438 376.160156 26.144531 381.476562 C 26.371094 383.429688 28.015625 386.375 29.597656 386.828125 C 37.808594 389.164062 46.1875 390.910156 54.53125 392.730469 C 58.390625 393.5625 59.777344 391.894531 59.738281 387.886719 C 59.5625 373.296875 59.660156 358.699219 59.660156 344.109375 Z M 56.8125 473.875 C 56.8125 456.589844 56.652344 439.296875 56.929688 422.007812 C 56.996094 417.652344 55.007812 416.101562 51.390625 415.457031 C 46.171875 414.515625 40.933594 413.59375 35.695312 412.761719 C 28.871094 411.625 27.625 412.644531 27.617188 419.679688 C 27.570312 449.078125 27.558594 478.472656 27.574219 507.863281 C 27.574219 518.558594 27.574219 529.242188 27.574219 539.933594 C 27.574219 545.007812 28.578125 545.609375 33.097656 543.214844 C 39.871094 539.632812 46.5625 535.875 53.28125 532.179688 C 55.785156 530.792969 56.914062 528.898438 56.878906 525.761719 C 56.722656 508.464844 56.8125 491.171875 56.8125 473.875 Z M 56.8125 473.875 " fill-opacity="1" fill-rule="nonzero"></path></g><g clip-path="url(#609285cf5d)"><path fill="#ea7315" d="M 440.050781 373.296875 C 440.050781 388.589844 440.210938 403.636719 439.976562 418.695312 C 439.875 425.097656 439.324219 425.230469 433.074219 424.328125 C 432.617188 424.265625 432.167969 424.179688 431.722656 424.0625 C 429.867188 418.351562 427.542969 413.253906 426.667969 407.910156 C 425.722656 401.945312 426.089844 395.757812 426.015625 389.664062 C 426.015625 388.832031 426.601562 387.410156 427.175781 387.269531 C 431.789062 386.078125 431.355469 382.570312 431.355469 379.074219 C 431.355469 372.597656 432.800781 371.601562 440.050781 373.296875 Z M 440.050781 373.296875 " fill-opacity="1" fill-rule="nonzero"></path></g><g fill="#32455d" fill-opacity="1"><g transform="translate(457.975933, 407.749427)"><g><path d="M 55.5625 -25.78125 L 21.265625 -25.78125 L 11.96875 0 L 1.0625 0 L 36.28125 -94.5 L 41.34375 -94.5 L 76.703125 0 L 65.125 0 Z M 24.859375 -35.359375 L 52.234375 -35.359375 L 41.875 -63.671875 L 38.546875 -77.765625 L 38.421875 -77.765625 L 35.09375 -63.40625 Z M 24.859375 -35.359375 "></path></g></g></g><g fill="#32455d" fill-opacity="1"><g transform="translate(535.727532, 407.749427)"><g><path d="M 22.0625 -16.34375 C 22.0625 -13.25 22.59375 -11.035156 23.65625 -9.703125 C 24.71875 -8.367188 26.222656 -7.703125 28.171875 -7.703125 C 29.328125 -7.703125 30.566406 -7.789062 31.890625 -7.96875 C 33.222656 -8.144531 34.734375 -8.546875 36.421875 -9.171875 L 37.609375 -0.796875 C 36.191406 -0.0859375 34.21875 0.484375 31.6875 0.921875 C 29.164062 1.367188 26.976562 1.59375 25.125 1.59375 C 21.132812 1.59375 17.851562 0.460938 15.28125 -1.796875 C 12.71875 -4.054688 11.4375 -7.890625 11.4375 -13.296875 L 11.4375 -93.046875 L 22.0625 -93.046875 Z M 22.0625 -16.34375 "></path></g></g></g><g fill="#32455d" fill-opacity="1"><g transform="translate(574.536875, 407.749427)"><g><path d="M 19.8125 -66.46875 L 19.8125 -28.578125 C 19.8125 -25.117188 20.007812 -22.082031 20.40625 -19.46875 C 20.800781 -16.851562 21.484375 -14.679688 22.453125 -12.953125 C 23.429688 -11.234375 24.765625 -9.925781 26.453125 -9.03125 C 28.140625 -8.144531 30.265625 -7.703125 32.828125 -7.703125 C 35.222656 -7.703125 37.347656 -8.078125 39.203125 -8.828125 C 41.066406 -9.585938 42.726562 -10.628906 44.1875 -11.953125 C 45.65625 -13.285156 46.941406 -14.816406 48.046875 -16.546875 C 49.160156 -18.273438 50.070312 -20.113281 50.78125 -22.0625 L 50.78125 -66.46875 L 61.40625 -66.46875 L 61.40625 -18.875 C 61.40625 -15.6875 61.515625 -12.382812 61.734375 -8.96875 C 61.960938 -5.5625 62.34375 -2.570312 62.875 0 L 55.5625 0 L 52.90625 -10.5 L 52.234375 -10.5 C 50.203125 -7.039062 47.457031 -4.160156 44 -1.859375 C 40.539062 0.441406 36.15625 1.59375 30.84375 1.59375 C 27.289062 1.59375 24.160156 1.171875 21.453125 0.328125 C 18.753906 -0.515625 16.5 -2 14.6875 -4.125 C 12.875 -6.25 11.5 -9.101562 10.5625 -12.6875 C 9.632812 -16.28125 9.171875 -20.820312 9.171875 -26.3125 L 9.171875 -66.46875 Z M 19.8125 -66.46875 "></path></g></g></g><g fill="#32455d" fill-opacity="1"><g transform="translate(646.174663, 407.749427)"><g><path d="M 49.1875 0 L 49.1875 -37.609375 C 49.1875 -41.160156 49.03125 -44.242188 48.71875 -46.859375 C 48.40625 -49.472656 47.804688 -51.664062 46.921875 -53.4375 C 46.035156 -55.207031 44.769531 -56.535156 43.125 -57.421875 C 41.488281 -58.304688 39.34375 -58.75 36.6875 -58.75 C 32.613281 -58.75 29.222656 -57.507812 26.515625 -55.03125 C 23.816406 -52.550781 21.9375 -49.445312 20.875 -45.71875 L 20.875 0 L 10.234375 0 L 10.234375 -66.46875 L 17.671875 -66.46875 L 19.671875 -58.359375 L 20.203125 -58.359375 C 22.597656 -61.191406 25.367188 -63.515625 28.515625 -65.328125 C 31.660156 -67.148438 35.757812 -68.0625 40.8125 -68.0625 C 45.0625 -68.0625 48.535156 -67.238281 51.234375 -65.59375 C 53.941406 -63.957031 56.050781 -61.101562 57.5625 -57.03125 C 59.59375 -60.476562 62.398438 -63.175781 65.984375 -65.125 C 69.578125 -67.082031 73.632812 -68.0625 78.15625 -68.0625 C 81.875 -68.0625 85.019531 -67.640625 87.59375 -66.796875 C 90.164062 -65.953125 92.289062 -64.46875 93.96875 -62.34375 C 95.65625 -60.21875 96.875 -57.335938 97.625 -53.703125 C 98.382812 -50.066406 98.765625 -45.457031 98.765625 -39.875 L 98.765625 0 L 88.125 0 L 88.125 -40.015625 C 88.125 -43.203125 87.96875 -45.96875 87.65625 -48.3125 C 87.351562 -50.664062 86.734375 -52.613281 85.796875 -54.15625 C 84.867188 -55.707031 83.582031 -56.859375 81.9375 -57.609375 C 80.300781 -58.367188 78.15625 -58.75 75.5 -58.75 C 71.070312 -58.75 67.613281 -57.507812 65.125 -55.03125 C 62.644531 -52.550781 60.875 -49.003906 59.8125 -44.390625 L 59.8125 0 Z M 49.1875 0 "></path></g></g></g><g fill="#32455d" fill-opacity="1"><g transform="translate(754.096536, 407.749427)"><g><path d="M 12.5 -66.46875 L 23.125 -66.46875 L 23.125 0 L 12.5 0 Z M 10.234375 -86.671875 C 10.234375 -88.703125 10.921875 -90.445312 12.296875 -91.90625 C 13.671875 -93.375 15.421875 -94.109375 17.546875 -94.109375 C 19.671875 -94.109375 21.484375 -93.375 22.984375 -91.90625 C 24.492188 -90.445312 25.25 -88.703125 25.25 -86.671875 C 25.25 -84.628906 24.492188 -82.941406 22.984375 -81.609375 C 21.484375 -80.285156 19.671875 -79.625 17.546875 -79.625 C 15.421875 -79.625 13.671875 -80.285156 12.296875 -81.609375 C 10.921875 -82.941406 10.234375 -84.628906 10.234375 -86.671875 Z M 10.234375 -86.671875 "></path></g></g></g><g fill="#32455d" fill-opacity="1"><g transform="translate(789.716063, 407.749427)"><g><path d="M 52.90625 0 L 52.90625 -37.875 C 52.90625 -44.789062 51.90625 -50 49.90625 -53.5 C 47.914062 -57 44.265625 -58.75 38.953125 -58.75 C 34.253906 -58.75 30.375 -57.484375 27.3125 -54.953125 C 24.257812 -52.429688 22.113281 -49.265625 20.875 -45.453125 L 20.875 0 L 10.234375 0 L 10.234375 -66.46875 L 17.671875 -66.46875 L 19.671875 -58.359375 L 20.203125 -58.359375 C 22.328125 -61.191406 25.179688 -63.515625 28.765625 -65.328125 C 32.359375 -67.148438 36.640625 -68.0625 41.609375 -68.0625 C 45.234375 -68.0625 48.421875 -67.640625 51.171875 -66.796875 C 53.921875 -65.953125 56.203125 -64.46875 58.015625 -62.34375 C 59.835938 -60.21875 61.210938 -57.359375 62.140625 -53.765625 C 63.066406 -50.179688 63.53125 -45.640625 63.53125 -40.140625 L 63.53125 0 Z M 52.90625 0 "></path></g></g></g><g fill="#32455d" fill-opacity="1"><g transform="translate(862.417124, 407.749427)"><g><path d="M 12.5 -66.46875 L 23.125 -66.46875 L 23.125 0 L 12.5 0 Z M 10.234375 -86.671875 C 10.234375 -88.703125 10.921875 -90.445312 12.296875 -91.90625 C 13.671875 -93.375 15.421875 -94.109375 17.546875 -94.109375 C 19.671875 -94.109375 21.484375 -93.375 22.984375 -91.90625 C 24.492188 -90.445312 25.25 -88.703125 25.25 -86.671875 C 25.25 -84.628906 24.492188 -82.941406 22.984375 -81.609375 C 21.484375 -80.285156 19.671875 -79.625 17.546875 -79.625 C 15.421875 -79.625 13.671875 -80.285156 12.296875 -81.609375 C 10.921875 -82.941406 10.234375 -84.628906 10.234375 -86.671875 Z M 10.234375 -86.671875 "></path></g></g></g><g fill="#32455d" fill-opacity="1"><g transform="translate(898.036651, 407.749427)"><g><path d="M 19.8125 -66.46875 L 19.8125 -28.578125 C 19.8125 -25.117188 20.007812 -22.082031 20.40625 -19.46875 C 20.800781 -16.851562 21.484375 -14.679688 22.453125 -12.953125 C 23.429688 -11.234375 24.765625 -9.925781 26.453125 -9.03125 C 28.140625 -8.144531 30.265625 -7.703125 32.828125 -7.703125 C 35.222656 -7.703125 37.347656 -8.078125 39.203125 -8.828125 C 41.066406 -9.585938 42.726562 -10.628906 44.1875 -11.953125 C 45.65625 -13.285156 46.941406 -14.816406 48.046875 -16.546875 C 49.160156 -18.273438 50.070312 -20.113281 50.78125 -22.0625 L 50.78125 -66.46875 L 61.40625 -66.46875 L 61.40625 -18.875 C 61.40625 -15.6875 61.515625 -12.382812 61.734375 -8.96875 C 61.960938 -5.5625 62.34375 -2.570312 62.875 0 L 55.5625 0 L 52.90625 -10.5 L 52.234375 -10.5 C 50.203125 -7.039062 47.457031 -4.160156 44 -1.859375 C 40.539062 0.441406 36.15625 1.59375 30.84375 1.59375 C 27.289062 1.59375 24.160156 1.171875 21.453125 0.328125 C 18.753906 -0.515625 16.5 -2 14.6875 -4.125 C 12.875 -6.25 11.5 -9.101562 10.5625 -12.6875 C 9.632812 -16.28125 9.171875 -20.820312 9.171875 -26.3125 L 9.171875 -66.46875 Z M 19.8125 -66.46875 "></path></g></g></g><g fill="#32455d" fill-opacity="1"><g transform="translate(969.674439, 407.749427)"><g><path d="M 49.1875 0 L 49.1875 -37.609375 C 49.1875 -41.160156 49.03125 -44.242188 48.71875 -46.859375 C 48.40625 -49.472656 47.804688 -51.664062 46.921875 -53.4375 C 46.035156 -55.207031 44.769531 -56.535156 43.125 -57.421875 C 41.488281 -58.304688 39.34375 -58.75 36.6875 -58.75 C 32.613281 -58.75 29.222656 -57.507812 26.515625 -55.03125 C 23.816406 -52.550781 21.9375 -49.445312 20.875 -45.71875 L 20.875 0 L 10.234375 0 L 10.234375 -66.46875 L 17.671875 -66.46875 L 19.671875 -58.359375 L 20.203125 -58.359375 C 22.597656 -61.191406 25.367188 -63.515625 28.515625 -65.328125 C 31.660156 -67.148438 35.757812 -68.0625 40.8125 -68.0625 C 45.0625 -68.0625 48.535156 -67.238281 51.234375 -65.59375 C 53.941406 -63.957031 56.050781 -61.101562 57.5625 -57.03125 C 59.59375 -60.476562 62.398438 -63.175781 65.984375 -65.125 C 69.578125 -67.082031 73.632812 -68.0625 78.15625 -68.0625 C 81.875 -68.0625 85.019531 -67.640625 87.59375 -66.796875 C 90.164062 -65.953125 92.289062 -64.46875 93.96875 -62.34375 C 95.65625 -60.21875 96.875 -57.335938 97.625 -53.703125 C 98.382812 -50.066406 98.765625 -45.457031 98.765625 -39.875 L 98.765625 0 L 88.125 0 L 88.125 -40.015625 C 88.125 -43.203125 87.96875 -45.96875 87.65625 -48.3125 C 87.351562 -50.664062 86.734375 -52.613281 85.796875 -54.15625 C 84.867188 -55.707031 83.582031 -56.859375 81.9375 -57.609375 C 80.300781 -58.367188 78.15625 -58.75 75.5 -58.75 C 71.070312 -58.75 67.613281 -57.507812 65.125 -55.03125 C 62.644531 -52.550781 60.875 -49.003906 59.8125 -44.390625 L 59.8125 0 Z M 49.1875 0 "></path></g></g></g><g fill="#32455d" fill-opacity="1"><g transform="translate(1077.596312, 407.749427)"><g></g></g></g><g fill="#32455d" fill-opacity="1"><g transform="translate(1113.082926, 407.749427)"><g><path d="M 55.5625 -25.78125 L 21.265625 -25.78125 L 11.96875 0 L 1.0625 0 L 36.28125 -94.5 L 41.34375 -94.5 L 76.703125 0 L 65.125 0 Z M 24.859375 -35.359375 L 52.234375 -35.359375 L 41.875 -63.671875 L 38.546875 -77.765625 L 38.421875 -77.765625 L 35.09375 -63.40625 Z M 24.859375 -35.359375 "></path></g></g></g><g fill="#32455d" fill-opacity="1"><g transform="translate(1190.834525, 407.749427)"><g><path d="M 2.921875 -66.46875 L 13.296875 -66.46875 L 13.296875 -70.1875 C 13.296875 -74.257812 13.625 -77.800781 14.28125 -80.8125 C 14.945312 -83.820312 16.035156 -86.28125 17.546875 -88.1875 C 19.054688 -90.09375 21.003906 -91.507812 23.390625 -92.4375 C 25.785156 -93.375 28.753906 -93.84375 32.296875 -93.84375 C 35.128906 -93.84375 37.628906 -93.664062 39.796875 -93.3125 C 41.972656 -92.957031 44.257812 -92.289062 46.65625 -91.3125 L 44.265625 -82.40625 C 42.222656 -83.289062 40.289062 -83.863281 38.46875 -84.125 C 36.65625 -84.394531 34.953125 -84.53125 33.359375 -84.53125 C 31.054688 -84.53125 29.257812 -84.175781 27.96875 -83.46875 C 26.6875 -82.757812 25.757812 -81.71875 25.1875 -80.34375 C 24.613281 -78.976562 24.257812 -77.296875 24.125 -75.296875 C 23.988281 -73.304688 23.921875 -70.984375 23.921875 -68.328125 L 23.921875 -66.46875 L 41.609375 -66.46875 L 41.609375 -57.15625 L 23.921875 -57.15625 L 23.921875 0 L 13.296875 0 L 13.296875 -57.15625 L 2.921875 -57.15625 Z M 2.921875 -66.46875 "></path></g></g></g><g fill="#32455d" fill-opacity="1"><g transform="translate(1233.232376, 407.749427)"><g><path d="M 41.609375 -56.21875 C 38.941406 -57.113281 36.414062 -57.5625 34.03125 -57.5625 C 30.21875 -57.5625 27.203125 -56.519531 24.984375 -54.4375 C 22.773438 -52.351562 21.40625 -49.710938 20.875 -46.515625 L 20.875 0 L 10.234375 0 L 10.234375 -66.46875 L 17.671875 -66.46875 L 19.671875 -58.359375 L 20.203125 -58.359375 C 21.890625 -61.367188 23.90625 -63.691406 26.25 -65.328125 C 28.601562 -66.972656 31.59375 -67.796875 35.21875 -67.796875 C 37.789062 -67.796875 40.671875 -67.351562 43.859375 -66.46875 Z M 41.609375 -56.21875 "></path></g></g></g><g fill="#32455d" fill-opacity="1"><g transform="translate(1278.421332, 407.749427)"><g><path d="M 12.5 -66.46875 L 23.125 -66.46875 L 23.125 0 L 12.5 0 Z M 10.234375 -86.671875 C 10.234375 -88.703125 10.921875 -90.445312 12.296875 -91.90625 C 13.671875 -93.375 15.421875 -94.109375 17.546875 -94.109375 C 19.671875 -94.109375 21.484375 -93.375 22.984375 -91.90625 C 24.492188 -90.445312 25.25 -88.703125 25.25 -86.671875 C 25.25 -84.628906 24.492188 -82.941406 22.984375 -81.609375 C 21.484375 -80.285156 19.671875 -79.625 17.546875 -79.625 C 15.421875 -79.625 13.671875 -80.285156 12.296875 -81.609375 C 10.921875 -82.941406 10.234375 -84.628906 10.234375 -86.671875 Z M 10.234375 -86.671875 "></path></g></g></g><g fill="#32455d" fill-opacity="1"><g transform="translate(1314.040904, 407.749427)"><g><path d="M 55.5625 -4.390625 C 52.90625 -2.441406 49.757812 -0.957031 46.125 0.0625 C 42.488281 1.082031 38.675781 1.59375 34.6875 1.59375 C 29.550781 1.59375 25.207031 0.773438 21.65625 -0.859375 C 18.113281 -2.503906 15.210938 -4.851562 12.953125 -7.90625 C 10.703125 -10.96875 9.066406 -14.644531 8.046875 -18.9375 C 7.023438 -23.238281 6.515625 -28.003906 6.515625 -33.234375 C 6.515625 -44.484375 8.992188 -53.097656 13.953125 -59.078125 C 18.921875 -65.066406 26.054688 -68.0625 35.359375 -68.0625 C 39.609375 -68.0625 43.21875 -67.726562 46.1875 -67.0625 C 49.15625 -66.394531 51.835938 -65.441406 54.234375 -64.203125 L 51.171875 -55.03125 C 49.140625 -56.175781 46.878906 -57.082031 44.390625 -57.75 C 41.910156 -58.414062 39.253906 -58.75 36.421875 -58.75 C 23.835938 -58.75 17.546875 -50.242188 17.546875 -33.234375 C 17.546875 -29.859375 17.878906 -26.644531 18.546875 -23.59375 C 19.210938 -20.539062 20.316406 -17.835938 21.859375 -15.484375 C 23.410156 -13.140625 25.445312 -11.253906 27.96875 -9.828125 C 30.5 -8.410156 33.625 -7.703125 37.34375 -7.703125 C 40.539062 -7.703125 43.398438 -8.191406 45.921875 -9.171875 C 48.453125 -10.148438 50.515625 -11.257812 52.109375 -12.5 Z M 55.5625 -4.390625 "></path></g></g></g><g fill="#32455d" fill-opacity="1"><g transform="translate(1373.982764, 407.749427)"><g><path d="M 9.171875 -61.546875 C 12.535156 -63.578125 16.453125 -65.082031 20.921875 -66.0625 C 25.398438 -67.039062 30.078125 -67.53125 34.953125 -67.53125 C 39.566406 -67.53125 43.269531 -66.90625 46.0625 -65.65625 C 48.851562 -64.414062 50.976562 -62.800781 52.4375 -60.8125 C 53.894531 -58.820312 54.867188 -56.628906 55.359375 -54.234375 C 55.847656 -51.835938 56.09375 -49.441406 56.09375 -47.046875 C 56.09375 -41.734375 55.957031 -36.550781 55.6875 -31.5 C 55.425781 -26.445312 55.296875 -21.660156 55.296875 -17.140625 C 55.296875 -13.867188 55.425781 -10.769531 55.6875 -7.84375 C 55.957031 -4.914062 56.445312 -2.210938 57.15625 0.265625 L 49.3125 0.265625 L 46.515625 -9.03125 L 45.859375 -9.03125 C 45.054688 -7.789062 44.054688 -6.570312 42.859375 -5.375 C 41.671875 -4.1875 40.234375 -3.125 38.546875 -2.1875 C 36.859375 -1.257812 34.90625 -0.488281 32.6875 0.125 C 30.476562 0.75 27.957031 1.0625 25.125 1.0625 C 22.289062 1.0625 19.65625 0.617188 17.21875 -0.265625 C 14.78125 -1.148438 12.671875 -2.410156 10.890625 -4.046875 C 9.117188 -5.691406 7.722656 -7.664062 6.703125 -9.96875 C 5.691406 -12.269531 5.1875 -14.882812 5.1875 -17.8125 C 5.1875 -21.707031 5.984375 -24.960938 7.578125 -27.578125 C 9.171875 -30.191406 11.40625 -32.273438 14.28125 -33.828125 C 17.164062 -35.378906 20.625 -36.488281 24.65625 -37.15625 C 28.6875 -37.820312 33.140625 -38.15625 38.015625 -38.15625 C 39.253906 -38.15625 40.472656 -38.15625 41.671875 -38.15625 C 42.867188 -38.15625 44.085938 -38.0625 45.328125 -37.875 C 45.585938 -40.539062 45.71875 -42.9375 45.71875 -45.0625 C 45.71875 -49.9375 44.742188 -53.347656 42.796875 -55.296875 C 40.847656 -57.242188 37.304688 -58.21875 32.171875 -58.21875 C 30.660156 -58.21875 29.039062 -58.109375 27.3125 -57.890625 C 25.582031 -57.671875 23.8125 -57.359375 22 -56.953125 C 20.1875 -56.554688 18.457031 -56.066406 16.8125 -55.484375 C 15.175781 -54.910156 13.738281 -54.269531 12.5 -53.5625 Z M 28.046875 -8.234375 C 30.523438 -8.234375 32.738281 -8.566406 34.6875 -9.234375 C 36.632812 -9.898438 38.316406 -10.742188 39.734375 -11.765625 C 41.160156 -12.785156 42.335938 -13.914062 43.265625 -15.15625 C 44.191406 -16.394531 44.878906 -17.585938 45.328125 -18.734375 L 45.328125 -29.78125 C 44.085938 -29.863281 42.820312 -29.925781 41.53125 -29.96875 C 40.25 -30.019531 38.988281 -30.046875 37.75 -30.046875 C 35 -30.046875 32.316406 -29.890625 29.703125 -29.578125 C 27.085938 -29.265625 24.785156 -28.6875 22.796875 -27.84375 C 20.804688 -27 19.210938 -25.847656 18.015625 -24.390625 C 16.816406 -22.929688 16.21875 -21.09375 16.21875 -18.875 C 16.21875 -15.769531 17.320312 -13.21875 19.53125 -11.21875 C 21.75 -9.226562 24.585938 -8.234375 28.046875 -8.234375 Z M 28.046875 -8.234375 "></path></g></g></g><g fill="#32455d" fill-opacity="1"><g transform="translate(601.02125, 505.607326)"><g><path d="M 16.765625 -21.390625 L 17.65625 -12.8125 L 17.9375 -12.8125 L 18.90625 -21.53125 L 27.359375 -48.46875 L 33.59375 -48.46875 L 41.890625 -21.390625 L 42.859375 -12.8125 L 43.140625 -12.8125 L 44.1875 -21.53125 L 50.0625 -48.46875 L 59.6875 -48.46875 L 46.328125 0.34375 L 39.953125 0.34375 L 31.296875 -26.59375 L 30.125 -34 L 29.78125 -34 L 28.59375 -26.515625 L 20.015625 0.34375 L 13.296875 0.34375 L 0 -48.46875 L 10.3125 -48.46875 Z M 16.765625 -21.390625 "></path></g></g></g><g fill="#32455d" fill-opacity="1"><g transform="translate(660.720871, 505.607326)"><g><path d="M 5.125 -48.46875 L 14.609375 -48.46875 L 14.609375 0 L 5.125 0 Z M 5.125 -48.46875 "></path></g></g></g><g fill="#32455d" fill-opacity="1"><g transform="translate(680.459151, 505.607326)"><g><path d="M 16.203125 -25.28125 L 12.390625 -32.890625 L 12.046875 -32.890625 L 13.15625 -25.28125 L 13.15625 0 L 4.15625 0 L 4.15625 -48.828125 L 11.078125 -48.828125 L 29.4375 -22.984375 L 33.09375 -15.578125 L 33.453125 -15.578125 L 32.34375 -22.984375 L 32.34375 -48.46875 L 41.34375 -48.46875 L 41.34375 0.34375 L 34.421875 0.34375 Z M 16.203125 -25.28125 "></path></g></g></g><g fill="#32455d" fill-opacity="1"><g transform="translate(725.961075, 505.607326)"><g><path d="M 4.15625 -48.46875 C 5.125 -48.613281 6.21875 -48.726562 7.4375 -48.8125 C 8.664062 -48.90625 9.925781 -48.972656 11.21875 -49.015625 C 12.507812 -49.066406 13.765625 -49.101562 14.984375 -49.125 C 16.210938 -49.15625 17.3125 -49.171875 18.28125 -49.171875 C 22.570312 -49.171875 26.238281 -48.566406 29.28125 -47.359375 C 32.332031 -46.160156 34.804688 -44.476562 36.703125 -42.3125 C 38.597656 -40.144531 39.984375 -37.554688 40.859375 -34.546875 C 41.734375 -31.546875 42.171875 -28.25 42.171875 -24.65625 C 42.171875 -21.375 41.753906 -18.207031 40.921875 -15.15625 C 40.097656 -12.113281 38.710938 -9.414062 36.765625 -7.0625 C 34.828125 -4.707031 32.273438 -2.8125 29.109375 -1.375 C 25.953125 0.0507812 22.039062 0.765625 17.375 0.765625 C 16.644531 0.765625 15.664062 0.738281 14.4375 0.6875 C 13.21875 0.644531 11.945312 0.585938 10.625 0.515625 C 9.3125 0.453125 8.054688 0.382812 6.859375 0.3125 C 5.660156 0.238281 4.757812 0.15625 4.15625 0.0625 Z M 19.046875 -40.71875 C 18.023438 -40.71875 16.992188 -40.691406 15.953125 -40.640625 C 14.921875 -40.597656 14.148438 -40.53125 13.640625 -40.4375 L 13.640625 -7.96875 C 13.828125 -7.914062 14.140625 -7.878906 14.578125 -7.859375 C 15.015625 -7.835938 15.488281 -7.8125 16 -7.78125 C 16.507812 -7.757812 16.992188 -7.738281 17.453125 -7.71875 C 17.910156 -7.695312 18.253906 -7.6875 18.484375 -7.6875 C 21.160156 -7.6875 23.390625 -8.160156 25.171875 -9.109375 C 26.953125 -10.054688 28.359375 -11.3125 29.390625 -12.875 C 30.429688 -14.445312 31.160156 -16.257812 31.578125 -18.3125 C 31.992188 -20.363281 32.203125 -22.476562 32.203125 -24.65625 C 32.203125 -26.550781 32.015625 -28.453125 31.640625 -30.359375 C 31.273438 -32.273438 30.59375 -33.992188 29.59375 -35.515625 C 28.601562 -37.046875 27.253906 -38.296875 25.546875 -39.265625 C 23.835938 -40.234375 21.671875 -40.71875 19.046875 -40.71875 Z M 19.046875 -40.71875 "></path></g></g></g><g fill="#32455d" fill-opacity="1"><g transform="translate(770.77042, 505.607326)"><g><path d="M 2.625 -24.234375 C 2.625 -32.316406 4.398438 -38.535156 7.953125 -42.890625 C 11.515625 -47.253906 16.597656 -49.4375 23.203125 -49.4375 C 26.660156 -49.4375 29.679688 -48.835938 32.265625 -47.640625 C 34.859375 -46.441406 37.003906 -44.734375 38.703125 -42.515625 C 40.410156 -40.304688 41.679688 -37.65625 42.515625 -34.5625 C 43.347656 -31.46875 43.765625 -28.023438 43.765625 -24.234375 C 43.765625 -16.160156 41.972656 -9.941406 38.390625 -5.578125 C 34.816406 -1.210938 29.753906 0.96875 23.203125 0.96875 C 19.691406 0.96875 16.644531 0.367188 14.0625 -0.828125 C 11.476562 -2.023438 9.34375 -3.734375 7.65625 -5.953125 C 5.96875 -8.171875 4.707031 -10.828125 3.875 -13.921875 C 3.039062 -17.015625 2.625 -20.453125 2.625 -24.234375 Z M 12.609375 -24.234375 C 12.609375 -21.785156 12.8125 -19.535156 13.21875 -17.484375 C 13.632812 -15.429688 14.269531 -13.664062 15.125 -12.1875 C 15.976562 -10.707031 17.070312 -9.550781 18.40625 -8.71875 C 19.75 -7.894531 21.347656 -7.484375 23.203125 -7.484375 C 26.566406 -7.484375 29.171875 -8.796875 31.015625 -11.421875 C 32.867188 -14.054688 33.796875 -18.328125 33.796875 -24.234375 C 33.796875 -26.585938 33.597656 -28.78125 33.203125 -30.8125 C 32.804688 -32.84375 32.191406 -34.617188 31.359375 -36.140625 C 30.535156 -37.671875 29.453125 -38.863281 28.109375 -39.71875 C 26.773438 -40.570312 25.140625 -41 23.203125 -41 C 19.828125 -41 17.21875 -39.644531 15.375 -36.9375 C 13.53125 -34.238281 12.609375 -30.003906 12.609375 -24.234375 Z M 12.609375 -24.234375 "></path></g></g></g><g fill="#32455d" fill-opacity="1"><g transform="translate(817.172677, 505.607326)"><g><path d="M 16.765625 -21.390625 L 17.65625 -12.8125 L 17.9375 -12.8125 L 18.90625 -21.53125 L 27.359375 -48.46875 L 33.59375 -48.46875 L 41.890625 -21.390625 L 42.859375 -12.8125 L 43.140625 -12.8125 L 44.1875 -21.53125 L 50.0625 -48.46875 L 59.6875 -48.46875 L 46.328125 0.34375 L 39.953125 0.34375 L 31.296875 -26.59375 L 30.125 -34 L 29.78125 -34 L 28.59375 -26.515625 L 20.015625 0.34375 L 13.296875 0.34375 L 0 -48.46875 L 10.3125 -48.46875 Z M 16.765625 -21.390625 "></path></g></g></g><g fill="#32455d" fill-opacity="1"><g transform="translate(876.872297, 505.607326)"><g><path d="M 25.0625 -13.015625 C 25.0625 -14.492188 24.519531 -15.691406 23.4375 -16.609375 C 22.351562 -17.535156 20.988281 -18.378906 19.34375 -19.140625 C 17.707031 -19.910156 15.929688 -20.695312 14.015625 -21.5 C 12.109375 -22.3125 10.332031 -23.304688 8.6875 -24.484375 C 7.050781 -25.660156 5.691406 -27.125 4.609375 -28.875 C 3.523438 -30.632812 2.984375 -32.875 2.984375 -35.59375 C 2.984375 -37.945312 3.375 -39.988281 4.15625 -41.71875 C 4.9375 -43.445312 6.050781 -44.890625 7.5 -46.046875 C 8.957031 -47.203125 10.679688 -48.054688 12.671875 -48.609375 C 14.660156 -49.160156 16.878906 -49.4375 19.328125 -49.4375 C 22.140625 -49.4375 24.789062 -49.191406 27.28125 -48.703125 C 29.78125 -48.222656 31.835938 -47.523438 33.453125 -46.609375 L 30.46875 -38.640625 C 29.457031 -39.285156 27.9375 -39.875 25.90625 -40.40625 C 23.875 -40.9375 21.679688 -41.203125 19.328125 -41.203125 C 17.109375 -41.203125 15.410156 -40.765625 14.234375 -39.890625 C 13.054688 -39.015625 12.46875 -37.835938 12.46875 -36.359375 C 12.46875 -34.972656 13.007812 -33.816406 14.09375 -32.890625 C 15.175781 -31.972656 16.535156 -31.117188 18.171875 -30.328125 C 19.816406 -29.546875 21.597656 -28.738281 23.515625 -27.90625 C 25.429688 -27.070312 27.207031 -26.066406 28.84375 -24.890625 C 30.476562 -23.710938 31.835938 -22.257812 32.921875 -20.53125 C 34.015625 -18.800781 34.5625 -16.644531 34.5625 -14.0625 C 34.5625 -11.476562 34.132812 -9.25 33.28125 -7.375 C 32.425781 -5.507812 31.222656 -3.953125 29.671875 -2.703125 C 28.128906 -1.453125 26.257812 -0.53125 24.0625 0.0625 C 21.875 0.664062 19.460938 0.96875 16.828125 0.96875 C 13.367188 0.96875 10.320312 0.644531 7.6875 0 C 5.050781 -0.644531 3.113281 -1.289062 1.875 -1.9375 L 4.921875 -10.046875 C 5.421875 -9.765625 6.078125 -9.460938 6.890625 -9.140625 C 7.703125 -8.816406 8.613281 -8.515625 9.625 -8.234375 C 10.644531 -7.960938 11.71875 -7.734375 12.84375 -7.546875 C 13.976562 -7.359375 15.144531 -7.265625 16.34375 -7.265625 C 19.15625 -7.265625 21.3125 -7.738281 22.8125 -8.6875 C 24.3125 -9.632812 25.0625 -11.078125 25.0625 -13.015625 Z M 25.0625 -13.015625 "></path></g></g></g><g fill="#32455d" fill-opacity="1"><g transform="translate(913.578565, 505.607326)"><g></g></g></g><g fill="#32455d" fill-opacity="1"><g transform="translate(931.100606, 505.607326)"><g><path d="M 28.046875 -10.734375 L 13.15625 -10.734375 L 9.484375 0 L 0 0 L 17.453125 -48.828125 L 24.4375 -48.828125 L 41.890625 0 L 31.921875 0 Z M 15.578125 -18.34375 L 25.96875 -18.34375 L 22.375 -29.15625 L 20.90625 -36.765625 L 20.5625 -36.765625 L 19.109375 -29.078125 Z M 15.578125 -18.34375 "></path></g></g></g><g fill="#32455d" fill-opacity="1"><g transform="translate(973.001158, 505.607326)"><g><path d="M 16.203125 -25.28125 L 12.390625 -32.890625 L 12.046875 -32.890625 L 13.15625 -25.28125 L 13.15625 0 L 4.15625 0 L 4.15625 -48.828125 L 11.078125 -48.828125 L 29.4375 -22.984375 L 33.09375 -15.578125 L 33.453125 -15.578125 L 32.34375 -22.984375 L 32.34375 -48.46875 L 41.34375 -48.46875 L 41.34375 0.34375 L 34.421875 0.34375 Z M 16.203125 -25.28125 "></path></g></g></g><g fill="#32455d" fill-opacity="1"><g transform="translate(1018.503106, 505.607326)"><g><path d="M 4.15625 -48.46875 C 5.125 -48.613281 6.21875 -48.726562 7.4375 -48.8125 C 8.664062 -48.90625 9.925781 -48.972656 11.21875 -49.015625 C 12.507812 -49.066406 13.765625 -49.101562 14.984375 -49.125 C 16.210938 -49.15625 17.3125 -49.171875 18.28125 -49.171875 C 22.570312 -49.171875 26.238281 -48.566406 29.28125 -47.359375 C 32.332031 -46.160156 34.804688 -44.476562 36.703125 -42.3125 C 38.597656 -40.144531 39.984375 -37.554688 40.859375 -34.546875 C 41.734375 -31.546875 42.171875 -28.25 42.171875 -24.65625 C 42.171875 -21.375 41.753906 -18.207031 40.921875 -15.15625 C 40.097656 -12.113281 38.710938 -9.414062 36.765625 -7.0625 C 34.828125 -4.707031 32.273438 -2.8125 29.109375 -1.375 C 25.953125 0.0507812 22.039062 0.765625 17.375 0.765625 C 16.644531 0.765625 15.664062 0.738281 14.4375 0.6875 C 13.21875 0.644531 11.945312 0.585938 10.625 0.515625 C 9.3125 0.453125 8.054688 0.382812 6.859375 0.3125 C 5.660156 0.238281 4.757812 0.15625 4.15625 0.0625 Z M 19.046875 -40.71875 C 18.023438 -40.71875 16.992188 -40.691406 15.953125 -40.640625 C 14.921875 -40.597656 14.148438 -40.53125 13.640625 -40.4375 L 13.640625 -7.96875 C 13.828125 -7.914062 14.140625 -7.878906 14.578125 -7.859375 C 15.015625 -7.835938 15.488281 -7.8125 16 -7.78125 C 16.507812 -7.757812 16.992188 -7.738281 17.453125 -7.71875 C 17.910156 -7.695312 18.253906 -7.6875 18.484375 -7.6875 C 21.160156 -7.6875 23.390625 -8.160156 25.171875 -9.109375 C 26.953125 -10.054688 28.359375 -11.3125 29.390625 -12.875 C 30.429688 -14.445312 31.160156 -16.257812 31.578125 -18.3125 C 31.992188 -20.363281 32.203125 -22.476562 32.203125 -24.65625 C 32.203125 -26.550781 32.015625 -28.453125 31.640625 -30.359375 C 31.273438 -32.273438 30.59375 -33.992188 29.59375 -35.515625 C 28.601562 -37.046875 27.253906 -38.296875 25.546875 -39.265625 C 23.835938 -40.234375 21.671875 -40.71875 19.046875 -40.71875 Z M 19.046875 -40.71875 "></path></g></g></g><g fill="#32455d" fill-opacity="1"><g transform="translate(1063.312452, 505.607326)"><g></g></g></g><g fill="#32455d" fill-opacity="1"><g transform="translate(1080.834516, 505.607326)"><g><path d="M 4.15625 -48.46875 C 5.125 -48.613281 6.21875 -48.726562 7.4375 -48.8125 C 8.664062 -48.90625 9.925781 -48.972656 11.21875 -49.015625 C 12.507812 -49.066406 13.765625 -49.101562 14.984375 -49.125 C 16.210938 -49.15625 17.3125 -49.171875 18.28125 -49.171875 C 22.570312 -49.171875 26.238281 -48.566406 29.28125 -47.359375 C 32.332031 -46.160156 34.804688 -44.476562 36.703125 -42.3125 C 38.597656 -40.144531 39.984375 -37.554688 40.859375 -34.546875 C 41.734375 -31.546875 42.171875 -28.25 42.171875 -24.65625 C 42.171875 -21.375 41.753906 -18.207031 40.921875 -15.15625 C 40.097656 -12.113281 38.710938 -9.414062 36.765625 -7.0625 C 34.828125 -4.707031 32.273438 -2.8125 29.109375 -1.375 C 25.953125 0.0507812 22.039062 0.765625 17.375 0.765625 C 16.644531 0.765625 15.664062 0.738281 14.4375 0.6875 C 13.21875 0.644531 11.945312 0.585938 10.625 0.515625 C 9.3125 0.453125 8.054688 0.382812 6.859375 0.3125 C 5.660156 0.238281 4.757812 0.15625 4.15625 0.0625 Z M 19.046875 -40.71875 C 18.023438 -40.71875 16.992188 -40.691406 15.953125 -40.640625 C 14.921875 -40.597656 14.148438 -40.53125 13.640625 -40.4375 L 13.640625 -7.96875 C 13.828125 -7.914062 14.140625 -7.878906 14.578125 -7.859375 C 15.015625 -7.835938 15.488281 -7.8125 16 -7.78125 C 16.507812 -7.757812 16.992188 -7.738281 17.453125 -7.71875 C 17.910156 -7.695312 18.253906 -7.6875 18.484375 -7.6875 C 21.160156 -7.6875 23.390625 -8.160156 25.171875 -9.109375 C 26.953125 -10.054688 28.359375 -11.3125 29.390625 -12.875 C 30.429688 -14.445312 31.160156 -16.257812 31.578125 -18.3125 C 31.992188 -20.363281 32.203125 -22.476562 32.203125 -24.65625 C 32.203125 -26.550781 32.015625 -28.453125 31.640625 -30.359375 C 31.273438 -32.273438 30.59375 -33.992188 29.59375 -35.515625 C 28.601562 -37.046875 27.253906 -38.296875 25.546875 -39.265625 C 23.835938 -40.234375 21.671875 -40.71875 19.046875 -40.71875 Z M 19.046875 -40.71875 "></path></g></g></g><g fill="#32455d" fill-opacity="1"><g transform="translate(1125.643862, 505.607326)"><g><path d="M 2.625 -24.234375 C 2.625 -32.316406 4.398438 -38.535156 7.953125 -42.890625 C 11.515625 -47.253906 16.597656 -49.4375 23.203125 -49.4375 C 26.660156 -49.4375 29.679688 -48.835938 32.265625 -47.640625 C 34.859375 -46.441406 37.003906 -44.734375 38.703125 -42.515625 C 40.410156 -40.304688 41.679688 -37.65625 42.515625 -34.5625 C 43.347656 -31.46875 43.765625 -28.023438 43.765625 -24.234375 C 43.765625 -16.160156 41.972656 -9.941406 38.390625 -5.578125 C 34.816406 -1.210938 29.753906 0.96875 23.203125 0.96875 C 19.691406 0.96875 16.644531 0.367188 14.0625 -0.828125 C 11.476562 -2.023438 9.34375 -3.734375 7.65625 -5.953125 C 5.96875 -8.171875 4.707031 -10.828125 3.875 -13.921875 C 3.039062 -17.015625 2.625 -20.453125 2.625 -24.234375 Z M 12.609375 -24.234375 C 12.609375 -21.785156 12.8125 -19.535156 13.21875 -17.484375 C 13.632812 -15.429688 14.269531 -13.664062 15.125 -12.1875 C 15.976562 -10.707031 17.070312 -9.550781 18.40625 -8.71875 C 19.75 -7.894531 21.347656 -7.484375 23.203125 -7.484375 C 26.566406 -7.484375 29.171875 -8.796875 31.015625 -11.421875 C 32.867188 -14.054688 33.796875 -18.328125 33.796875 -24.234375 C 33.796875 -26.585938 33.597656 -28.78125 33.203125 -30.8125 C 32.804688 -32.84375 32.191406 -34.617188 31.359375 -36.140625 C 30.535156 -37.671875 29.453125 -38.863281 28.109375 -39.71875 C 26.773438 -40.570312 25.140625 -41 23.203125 -41 C 19.828125 -41 17.21875 -39.644531 15.375 -36.9375 C 13.53125 -34.238281 12.609375 -30.003906 12.609375 -24.234375 Z M 12.609375 -24.234375 "></path></g></g></g><g fill="#32455d" fill-opacity="1"><g transform="translate(1172.046118, 505.607326)"><g><path d="M 2.625 -24.234375 C 2.625 -32.316406 4.398438 -38.535156 7.953125 -42.890625 C 11.515625 -47.253906 16.597656 -49.4375 23.203125 -49.4375 C 26.660156 -49.4375 29.679688 -48.835938 32.265625 -47.640625 C 34.859375 -46.441406 37.003906 -44.734375 38.703125 -42.515625 C 40.410156 -40.304688 41.679688 -37.65625 42.515625 -34.5625 C 43.347656 -31.46875 43.765625 -28.023438 43.765625 -24.234375 C 43.765625 -16.160156 41.972656 -9.941406 38.390625 -5.578125 C 34.816406 -1.210938 29.753906 0.96875 23.203125 0.96875 C 19.691406 0.96875 16.644531 0.367188 14.0625 -0.828125 C 11.476562 -2.023438 9.34375 -3.734375 7.65625 -5.953125 C 5.96875 -8.171875 4.707031 -10.828125 3.875 -13.921875 C 3.039062 -17.015625 2.625 -20.453125 2.625 -24.234375 Z M 12.609375 -24.234375 C 12.609375 -21.785156 12.8125 -19.535156 13.21875 -17.484375 C 13.632812 -15.429688 14.269531 -13.664062 15.125 -12.1875 C 15.976562 -10.707031 17.070312 -9.550781 18.40625 -8.71875 C 19.75 -7.894531 21.347656 -7.484375 23.203125 -7.484375 C 26.566406 -7.484375 29.171875 -8.796875 31.015625 -11.421875 C 32.867188 -14.054688 33.796875 -18.328125 33.796875 -24.234375 C 33.796875 -26.585938 33.597656 -28.78125 33.203125 -30.8125 C 32.804688 -32.84375 32.191406 -34.617188 31.359375 -36.140625 C 30.535156 -37.671875 29.453125 -38.863281 28.109375 -39.71875 C 26.773438 -40.570312 25.140625 -41 23.203125 -41 C 19.828125 -41 17.21875 -39.644531 15.375 -36.9375 C 13.53125 -34.238281 12.609375 -30.003906 12.609375 -24.234375 Z M 12.609375 -24.234375 "></path></g></g></g><g fill="#32455d" fill-opacity="1"><g transform="translate(1218.448374, 505.607326)"><g><path d="M 4.15625 -47.984375 C 5.21875 -48.171875 6.359375 -48.34375 7.578125 -48.5 C 8.804688 -48.664062 10.03125 -48.796875 11.25 -48.890625 C 12.476562 -48.984375 13.664062 -49.050781 14.8125 -49.09375 C 15.96875 -49.144531 17.03125 -49.171875 18 -49.171875 C 20.257812 -49.171875 22.488281 -48.960938 24.6875 -48.546875 C 26.882812 -48.128906 28.847656 -47.410156 30.578125 -46.390625 C 32.304688 -45.378906 33.6875 -43.984375 34.71875 -42.203125 C 35.757812 -40.429688 36.28125 -38.207031 36.28125 -35.53125 C 36.28125 -31.550781 35.359375 -28.316406 33.515625 -25.828125 C 31.671875 -23.335938 29.203125 -21.609375 26.109375 -20.640625 L 29.5 -18.484375 L 40.578125 0 L 29.640625 0 L 18.625 -18.96875 L 13.640625 -19.875 L 13.640625 0 L 4.15625 0 Z M 18.703125 -40.71875 C 17.734375 -40.71875 16.773438 -40.691406 15.828125 -40.640625 C 14.878906 -40.597656 14.148438 -40.507812 13.640625 -40.375 L 13.640625 -26.3125 L 17.65625 -26.3125 C 20.289062 -26.3125 22.390625 -26.910156 23.953125 -28.109375 C 25.523438 -29.316406 26.3125 -31.304688 26.3125 -34.078125 C 26.3125 -36.148438 25.664062 -37.773438 24.375 -38.953125 C 23.082031 -40.128906 21.191406 -40.71875 18.703125 -40.71875 Z M 18.703125 -40.71875 "></path></g></g></g><g fill="#32455d" fill-opacity="1"><g transform="translate(1260.14115, 505.607326)"><g><path d="M 25.0625 -13.015625 C 25.0625 -14.492188 24.519531 -15.691406 23.4375 -16.609375 C 22.351562 -17.535156 20.988281 -18.378906 19.34375 -19.140625 C 17.707031 -19.910156 15.929688 -20.695312 14.015625 -21.5 C 12.109375 -22.3125 10.332031 -23.304688 8.6875 -24.484375 C 7.050781 -25.660156 5.691406 -27.125 4.609375 -28.875 C 3.523438 -30.632812 2.984375 -32.875 2.984375 -35.59375 C 2.984375 -37.945312 3.375 -39.988281 4.15625 -41.71875 C 4.9375 -43.445312 6.050781 -44.890625 7.5 -46.046875 C 8.957031 -47.203125 10.679688 -48.054688 12.671875 -48.609375 C 14.660156 -49.160156 16.878906 -49.4375 19.328125 -49.4375 C 22.140625 -49.4375 24.789062 -49.191406 27.28125 -48.703125 C 29.78125 -48.222656 31.835938 -47.523438 33.453125 -46.609375 L 30.46875 -38.640625 C 29.457031 -39.285156 27.9375 -39.875 25.90625 -40.40625 C 23.875 -40.9375 21.679688 -41.203125 19.328125 -41.203125 C 17.109375 -41.203125 15.410156 -40.765625 14.234375 -39.890625 C 13.054688 -39.015625 12.46875 -37.835938 12.46875 -36.359375 C 12.46875 -34.972656 13.007812 -33.816406 14.09375 -32.890625 C 15.175781 -31.972656 16.535156 -31.117188 18.171875 -30.328125 C 19.816406 -29.546875 21.597656 -28.738281 23.515625 -27.90625 C 25.429688 -27.070312 27.207031 -26.066406 28.84375 -24.890625 C 30.476562 -23.710938 31.835938 -22.257812 32.921875 -20.53125 C 34.015625 -18.800781 34.5625 -16.644531 34.5625 -14.0625 C 34.5625 -11.476562 34.132812 -9.25 33.28125 -7.375 C 32.425781 -5.507812 31.222656 -3.953125 29.671875 -2.703125 C 28.128906 -1.453125 26.257812 -0.53125 24.0625 0.0625 C 21.875 0.664062 19.460938 0.96875 16.828125 0.96875 C 13.367188 0.96875 10.320312 0.644531 7.6875 0 C 5.050781 -0.644531 3.113281 -1.289062 1.875 -1.9375 L 4.921875 -10.046875 C 5.421875 -9.765625 6.078125 -9.460938 6.890625 -9.140625 C 7.703125 -8.816406 8.613281 -8.515625 9.625 -8.234375 C 10.644531 -7.960938 11.71875 -7.734375 12.84375 -7.546875 C 13.976562 -7.359375 15.144531 -7.265625 16.34375 -7.265625 C 19.15625 -7.265625 21.3125 -7.738281 22.8125 -8.6875 C 24.3125 -9.632812 25.0625 -11.078125 25.0625 -13.015625 Z M 25.0625 -13.015625 "></path></g></g></g></svg>