<?xml version="1.0" encoding="utf-8"?>
<!-- Generator: Adobe Illustrator 23.0.6, SVG Export Plug-In . SVG Version: 6.00 Build 0)  -->
<svg version="1.1" id="Layer_1" xmlns="http://www.w3.org/2000/svg" xmlns:xlink="http://www.w3.org/1999/xlink" x="0px" y="0px"
	 viewBox="0 0 380 161.4" style="enable-background:new 0 0 380 161.4;" xml:space="preserve">
<style type="text/css">
	.st0{fill:#006838;}
	.st1{fill:#8BC53F;}
	.st2{fill:#75B64F;}
	.st3{fill:#BCD530;}
	.st4{fill:#4A934B;}
	.st5{fill:#ACD14E;}
	.st6{fill:#227B45;}
	.st7{fill:#9DCB52;}
</style>
<g id="XMLID_1_">
	<g id="XMLID_70_">
		<path id="XMLID_127_" class="st0" d="M47.8,122c0,1.4-0.6,2.5-1.9,3.2c-1,0.6-2.3,0.8-3.8,0.8c-1.3,0-2.5-0.2-3.4-0.6
			c-1.2-0.5-2-1.3-2.2-2.4l1.7-0.5c0.3,1.1,1.6,1.6,3.9,1.6c2.6,0,4-0.8,4-2.3c0-1.5-1.3-2.3-4-2.3c-1.6,0-2.8-0.3-3.9-0.8
			c-1.3-0.7-1.9-1.7-1.9-3.2c0-1.5,0.6-2.5,1.9-3.2c1-0.6,2.3-0.8,3.9-0.8c1.3,0,2.5,0.2,3.4,0.6c1.2,0.5,2,1.3,2.3,2.4l-1.8,0.5
			c-0.3-1.1-1.6-1.6-3.9-1.6c-2.6,0-4,0.8-4,2.3c0,1.5,1.3,2.2,4,2.2c1.5,0,2.8,0.3,3.8,0.8C47.2,119.5,47.8,120.6,47.8,122z"/>
		<path id="XMLID_125_" class="st0" d="M61.7,118.9c0,2.1-0.5,3.8-1.6,5.1c-1.2,1.4-2.7,2.1-4.8,2.1c-2,0-3.6-0.7-4.7-2.1
			c-1-1.3-1.6-3-1.6-5.1v-7.2h1.8v7.2c0,1.6,0.3,2.8,1,3.8c0.8,1.1,1.9,1.6,3.5,1.6c1.5,0,2.7-0.5,3.5-1.6c0.7-0.9,1.1-2.2,1.1-3.8
			v-7.2h1.8V118.9z"/>
		<path id="XMLID_123_" class="st0" d="M74.6,122c0,1.4-0.6,2.5-1.9,3.2c-1,0.6-2.3,0.8-3.8,0.8c-1.3,0-2.5-0.2-3.4-0.6
			c-1.2-0.5-2-1.3-2.2-2.4l1.7-0.5c0.3,1.1,1.6,1.6,3.9,1.6c2.6,0,4-0.8,4-2.3c0-1.5-1.3-2.3-4-2.3c-1.6,0-2.8-0.3-3.9-0.8
			c-1.3-0.7-1.9-1.7-1.9-3.2c0-1.5,0.6-2.5,1.9-3.2c1-0.6,2.3-0.8,3.9-0.8c1.3,0,2.5,0.2,3.4,0.6c1.2,0.5,2,1.3,2.3,2.4l-1.8,0.5
			c-0.3-1.1-1.6-1.6-3.9-1.6c-2.6,0-4,0.8-4,2.3c0,1.5,1.3,2.2,4,2.2c1.5,0,2.8,0.3,3.8,0.8C73.9,119.5,74.6,120.6,74.6,122z"/>
		<path id="XMLID_121_" class="st0" d="M81.8,113.5v12.6h-1.8v-12.6h-4.5v-1.8h10.8v1.8H81.8z"/>
		<path id="XMLID_118_" class="st0" d="M95.1,126.1l-1.3-3.6h-6.3l-1.3,3.6h-1.9l5.2-14.4h2.3l5.2,14.4H95.1z M90.7,113.8l-2.5,6.9
			h5L90.7,113.8z"/>
		<path id="XMLID_116_" class="st0" d="M98.3,126.1v-14.4h1.8v14.4H98.3z"/>
		<path id="XMLID_114_" class="st0" d="M111.8,126.1l-8.1-11.3v11.3h-1.8v-14.4h1.8l8.1,11.3v-11.3h1.8v14.4H111.8z"/>
		<path id="XMLID_111_" class="st0" d="M125.7,126.1l-1.3-3.6H118l-1.3,3.6h-1.9l5.2-14.4h2.3l5.2,14.4H125.7z M121.2,113.8
			l-2.5,6.9h5L121.2,113.8z"/>
		<path id="XMLID_107_" class="st0" d="M141.4,122c0,2.7-1.7,4.1-5,4.1h-7.6v-14.4h7.2c3.4,0,5,1.4,5,4.1c0,1.6-0.6,2.6-1.9,3.1
			C140.7,119.3,141.4,120.3,141.4,122z M139.2,115.7c0-0.9-0.3-1.5-1-1.9c-0.5-0.2-1.2-0.4-2.2-0.4h-5.4v4.5h5.4
			c1,0,1.7-0.1,2.2-0.4C138.9,117.3,139.2,116.7,139.2,115.7z M139.6,122c0-0.9-0.3-1.5-1-1.9c-0.5-0.2-1.3-0.4-2.2-0.4h-5.8v4.5
			h5.8c1,0,1.7-0.1,2.2-0.4C139.3,123.6,139.6,123,139.6,122z"/>
		<path id="XMLID_105_" class="st0" d="M143,126.1v-14.4h1.8v12.6h8.1v1.8H143z"/>
		<path id="XMLID_103_" class="st0" d="M153.8,126.1v-14.4h9.9v1.8h-8.1v4.5h7.2v1.8h-7.2v4.5h8.1v1.8H153.8z"/>
		<path id="XMLID_101_" class="st0" d="M172.9,126.1v-14.4h1.8v12.6h8.1v1.8H172.9z"/>
		<path id="XMLID_99_" class="st0" d="M183.7,126.1v-14.4h1.8v14.4H183.7z"/>
		<path id="XMLID_97_" class="st0" d="M194.3,126.1H192l-5.2-14.4h1.9l4.5,12.3l4.5-12.3h1.9L194.3,126.1z"/>
		<path id="XMLID_95_" class="st0" d="M200.8,126.1v-14.4h1.8v14.4H200.8z"/>
		<path id="XMLID_93_" class="st0" d="M214.3,126.1l-8.1-11.3v11.3h-1.8v-14.4h1.8l8.1,11.3v-11.3h1.8v14.4H214.3z"/>
		<path id="XMLID_91_" class="st0" d="M228.4,126.1v-2.2c-1,1.5-2.5,2.2-4.5,2.2c-2,0-3.6-0.7-4.7-2.1c-1-1.3-1.6-3-1.6-5.1
			c0-2.1,0.5-3.8,1.6-5.1c1.1-1.4,2.7-2.1,4.7-2.1c1.4,0,2.6,0.3,3.6,1c1,0.7,1.7,1.6,2.2,2.9l-1.7,0.5c-0.7-1.7-2.1-2.5-4-2.5
			c-1.5,0-2.7,0.5-3.5,1.6c-0.7,0.9-1,2.2-1,3.8c0,1.6,0.3,2.8,1,3.8c0.8,1.1,1.9,1.6,3.5,1.6c1.3,0,2.4-0.4,3.2-1.3
			c0.7-0.8,1.2-1.9,1.3-3.2h-4.5V118h6.3v8.1H228.4z"/>
		<path id="XMLID_89_" class="st0" d="M250.8,122c0,1.4-0.6,2.5-1.9,3.2c-1,0.6-2.3,0.8-3.8,0.8c-1.3,0-2.5-0.2-3.4-0.6
			c-1.2-0.5-2-1.3-2.2-2.4l1.7-0.5c0.3,1.1,1.6,1.6,3.9,1.6c2.6,0,4-0.8,4-2.3c0-1.5-1.3-2.3-4-2.3c-1.6,0-2.8-0.3-3.9-0.8
			c-1.3-0.7-1.9-1.7-1.9-3.2c0-1.5,0.6-2.5,1.9-3.2c1-0.6,2.3-0.8,3.9-0.8c1.3,0,2.5,0.2,3.4,0.6c1.2,0.5,2,1.3,2.3,2.4l-1.8,0.5
			c-0.3-1.1-1.6-1.6-3.9-1.6c-2.6,0-4,0.8-4,2.3c0,1.5,1.3,2.2,4,2.2c1.5,0,2.8,0.3,3.8,0.8C250.2,119.5,250.8,120.6,250.8,122z"/>
		<path id="XMLID_86_" class="st0" d="M264.7,118.9c0,2.1-0.5,3.8-1.6,5.1c-1.2,1.4-2.7,2.1-4.8,2.1c-2,0-3.6-0.7-4.7-2.1
			c-1-1.3-1.6-3-1.6-5.1c0-2.1,0.5-3.8,1.6-5.1c1.1-1.4,2.7-2.1,4.7-2.1c2,0,3.6,0.7,4.8,2.1C264.1,115.1,264.7,116.8,264.7,118.9z
			 M262.9,118.9c0-1.6-0.4-2.9-1.1-3.8c-0.8-1.1-2-1.6-3.5-1.6c-1.5,0-2.6,0.5-3.5,1.6c-0.7,1-1,2.2-1,3.8c0,1.6,0.3,2.9,1,3.8
			c0.8,1.1,1.9,1.6,3.5,1.6c1.5,0,2.7-0.5,3.5-1.6C262.5,121.8,262.9,120.5,262.9,118.9z"/>
		<path id="XMLID_84_" class="st0" d="M266.1,126.1v-14.4h1.8v12.6h8.1v1.8H266.1z"/>
		<path id="XMLID_82_" class="st0" d="M288.4,118.9c0,2.1-0.5,3.8-1.6,5.1c-1.2,1.4-2.7,2.1-4.8,2.1c-2,0-3.6-0.7-4.7-2.1
			c-1-1.3-1.6-3-1.6-5.1v-7.2h1.8v7.2c0,1.6,0.3,2.8,1,3.8c0.8,1.1,1.9,1.6,3.5,1.6c1.5,0,2.7-0.5,3.5-1.6c0.7-0.9,1.1-2.2,1.1-3.8
			v-7.2h1.8V118.9z"/>
		<path id="XMLID_80_" class="st0" d="M295.7,113.5v12.6h-1.8v-12.6h-4.5v-1.8h10.8v1.8H295.7z"/>
		<path id="XMLID_78_" class="st0" d="M301.4,126.1v-14.4h1.8v14.4H301.4z"/>
		<path id="XMLID_75_" class="st0" d="M317.4,118.9c0,2.1-0.5,3.8-1.6,5.1c-1.2,1.4-2.7,2.1-4.8,2.1c-2,0-3.6-0.7-4.7-2.1
			c-1-1.3-1.6-3-1.6-5.1c0-2.1,0.5-3.8,1.6-5.1c1.1-1.4,2.7-2.1,4.7-2.1c2,0,3.6,0.7,4.8,2.1C316.8,115.1,317.4,116.8,317.4,118.9z
			 M315.6,118.9c0-1.6-0.4-2.9-1.1-3.8c-0.8-1.1-2-1.6-3.5-1.6c-1.5,0-2.6,0.5-3.5,1.6c-0.7,1-1,2.2-1,3.8c0,1.6,0.3,2.9,1,3.8
			c0.8,1.1,1.9,1.6,3.5,1.6c1.5,0,2.7-0.5,3.5-1.6C315.2,121.8,315.6,120.5,315.6,118.9z"/>
		<path id="XMLID_73_" class="st0" d="M328.7,126.1l-8.1-11.3v11.3h-1.8v-14.4h1.8l8.1,11.3v-11.3h1.8v14.4H328.7z"/>
		<path id="XMLID_71_" class="st0" d="M343.5,122c0,1.4-0.6,2.5-1.9,3.2c-1,0.6-2.3,0.8-3.8,0.8c-1.3,0-2.5-0.2-3.4-0.6
			c-1.2-0.5-2-1.3-2.2-2.4l1.7-0.5c0.3,1.1,1.6,1.6,3.9,1.6c2.6,0,4-0.8,4-2.3c0-1.5-1.3-2.3-4-2.3c-1.6,0-2.8-0.3-3.9-0.8
			c-1.3-0.7-1.9-1.7-1.9-3.2c0-1.5,0.6-2.5,1.9-3.2c1-0.6,2.3-0.8,3.9-0.8c1.3,0,2.5,0.2,3.4,0.6c1.2,0.5,2,1.3,2.3,2.4l-1.8,0.5
			c-0.3-1.1-1.6-1.6-3.9-1.6c-2.6,0-4,0.8-4,2.3c0,1.5,1.3,2.2,4,2.2c1.5,0,2.8,0.3,3.8,0.8C342.9,119.5,343.5,120.6,343.5,122z"/>
	</g>
	<path id="XMLID_19_" class="st0" d="M58.5,67.2H45.5v20.1l-9.2,0V38.3h27.2c5.4,0,9.7,1,12.9,3c3.8,2.5,5.7,6.3,5.7,11.4
		c0,7.9-4.3,12.6-12.9,14l14.2,20.6H72.5L58.5,67.2z M45.5,47v11.4h18c3,0,5.1-0.2,6.3-0.7c2.1-0.8,3.2-2.4,3.2-5
		c0-2.5-1-4.2-3.2-4.9c-1.3-0.5-3.4-0.8-6.3-0.8L45.5,47z"/>
	<path id="XMLID_29_" class="st0" d="M88.6,38.3l36.7,0V47l-27.5,0v11.4h24.4v8.7l-24.4,0v11.4h27.5v8.7H88.6V38.3z"/>
	<path id="XMLID_17_" class="st0" d="M146.8,87.3l-18.8-48.9h9.7l14.2,36.5l14.1-36.5l9.7,0l-18.8,48.9H146.8z"/>
	<path id="XMLID_13_" class="st0" d="M179.8,38.3h9.2v48.9h-9.2V38.3z"/>
	<path id="XMLID_11_" class="st0" d="M217.3,67.2h-13.1v20.1h-9.2V38.3l27.2,0c5.4,0,9.7,1,12.9,3c3.8,2.5,5.7,6.3,5.7,11.4
		c0,7.9-4.3,12.6-12.9,14l14.2,20.6h-10.9L217.3,67.2z M204.3,47v11.4h18c3,0,5.1-0.2,6.3-0.7c2.1-0.8,3.2-2.4,3.2-5
		c0-2.5-1-4.2-3.2-4.9c-1.3-0.5-3.4-0.8-6.3-0.8L204.3,47z"/>
	<path id="XMLID_20_" class="st0" d="M310.1,54.3v32.9H301V38.3h8.4l25.2,32.9V38.3h9.2v48.9h-8.4L310.1,54.3z"/>
	<rect id="XMLID_10_" x="36.3" y="98.1" class="st1" width="307.4" height="2.5"/>
	<g id="XMLID_14_">
		<g id="XMLID_450_">
			<path id="XMLID_509_" class="st1" d="M271.3,62.8c2.9,2.7,4.6,6.6,4.4,10.9c-0.3,7.8-6.9,13.9-14.7,13.6c-0.3,0-0.7,0-1-0.1
				c2.3,1.9,5.1,3,8.3,3.2c7.7,0.3,14.1-5.6,14.5-13.3C282.9,70,278,64,271.3,62.8z"/>
			<path id="XMLID_508_" class="st0" d="M270.5,62.1c-5.3-5.7-5.1-14.7,0.6-20c3.1-2.9,7.2-4.2,11.1-3.8c-5.3-4.3-13.1-4.1-18.2,0.7
				c-5.6,5.2-5.9,14-0.6,19.6c2.2,2.3,4.9,3.7,7.8,4.2C271,62.6,270.7,62.4,270.5,62.1z"/>
			<path id="XMLID_505_" class="st2" d="M271.3,62.9c0.1,4-1.4,7.9-4.6,10.8c-5.8,5.3-14.7,4.9-20-0.8c-0.2-0.3-0.5-0.5-0.7-0.8
				c0.3,2.9,1.5,5.8,3.6,8.1c5.2,5.6,14,6,19.6,0.8C274.4,76.3,275.1,68.5,271.3,62.9z"/>
			<path id="XMLID_504_" class="st3" d="M271.1,61.9c0.3-7.8,6.8-14,14.6-13.7c4.3,0.1,8,2.1,10.5,5.2c-0.7-6.8-6.3-12.2-13.4-12.4
				c-7.7-0.2-14.1,5.8-14.3,13.4c-0.1,3.2,0.9,6.1,2.6,8.5C271.1,62.6,271.1,62.3,271.1,61.9z"/>
			<path id="XMLID_500_" class="st4" d="M271.1,63c-2.7,2.9-6.6,4.6-10.9,4.4c-7.8-0.3-13.9-6.9-13.6-14.7c0-0.3,0-0.7,0.1-1
				c-1.9,2.3-3,5.1-3.2,8.3c-0.3,7.7,5.6,14.1,13.3,14.5C263.9,74.7,269.9,69.7,271.1,63z"/>
			<path id="XMLID_488_" class="st5" d="M271.8,62.2c5.7-5.3,14.7-5.1,20,0.6c2.9,3.1,4.2,7.2,3.8,11.1c4.3-5.3,4.1-13.1-0.7-18.2
				c-5.2-5.6-14-5.9-19.6-0.6c-2.3,2.2-3.7,4.9-4.2,7.8C271.3,62.7,271.5,62.4,271.8,62.2z"/>
			<path id="XMLID_485_" class="st6" d="M271,63c-4,0.1-7.9-1.4-10.8-4.6c-5.3-5.8-4.9-14.7,0.8-20c0.3-0.2,0.5-0.5,0.8-0.7
				c-2.9,0.3-5.8,1.5-8.1,3.6c-5.6,5.2-6,14-0.8,19.6C257.6,66.1,265.4,66.8,271,63z"/>
			<path id="XMLID_482_" class="st7" d="M272,62.9c7.8,0.3,14,6.8,13.7,14.6c-0.1,4.3-2.1,8-5.2,10.5c6.8-0.7,12.2-6.3,12.4-13.4
				c0.2-7.7-5.8-14.1-13.4-14.3c-3.2-0.1-6.1,0.9-8.5,2.6C271.3,62.8,271.7,62.8,272,62.9z"/>
		</g>
	</g>
</g>
</svg>
