<?xml version="1.0" encoding="UTF-8"?>
<svg id="Layer_1" data-name="Layer 1" xmlns="http://www.w3.org/2000/svg" viewBox="0 0 135.81 135.81">
  <defs>
    <style>
      .cls-1 {
        fill: #006838;
      }

      .cls-2 {
        fill: #9dcb52;
      }

      .cls-3 {
        fill: #8bc53f;
      }

      .cls-4 {
        fill: #bcd530;
      }

      .cls-5 {
        fill: #acd14e;
      }

      .cls-6 {
        fill: #227b45;
      }

      .cls-7 {
        fill: #75b64f;
      }

      .cls-8 {
        fill: #4a934b;
      }
    </style>
  </defs>
  <path class="cls-3" d="M68.45,67.86c7.14,6.65,11.32,16.24,10.83,26.83-.74,19.2-16.98,34.21-36.18,33.47-.74,0-1.72,0-2.46-.25,5.66,4.68,12.55,7.38,20.43,7.88,18.95,.74,34.7-13.78,35.69-32.73,.25-17.47-11.81-32.24-28.3-35.2Z"/>
  <path class="cls-1" d="M66.48,66.14c-13.04-14.03-12.55-36.18,1.48-49.22,7.63-7.14,17.72-10.34,27.32-9.35-13.04-10.58-32.24-10.09-44.79,1.72-13.78,12.8-14.52,34.46-1.48,48.24,5.41,5.66,12.06,9.11,19.2,10.34-.49-.49-1.23-.98-1.72-1.72Z"/>
  <path class="cls-7" d="M68.45,68.1c.25,9.84-3.45,19.44-11.32,26.58-14.28,13.04-36.18,12.06-49.22-1.97-.49-.74-1.23-1.23-1.72-1.97,.74,7.14,3.69,14.28,8.86,19.94,12.8,13.78,34.46,14.77,48.24,1.97,12.8-11.57,14.52-30.77,5.17-44.55Z"/>
  <path class="cls-4" d="M67.96,65.64c.74-19.2,16.74-34.46,35.93-33.72,10.58,.25,19.69,5.17,25.84,12.8-1.72-16.74-15.51-30.03-32.98-30.52-18.95-.49-34.7,14.28-35.2,32.98-.25,7.88,2.22,15.01,6.4,20.92,0-.74,0-1.48,0-2.46Z"/>
  <path class="cls-8" d="M67.96,68.35c-6.65,7.14-16.24,11.32-26.83,10.83-19.2-.74-34.21-16.98-33.47-36.18,0-.74,0-1.72,.25-2.46C3.23,46.2,.52,53.09,.03,60.97c-.74,18.95,13.78,34.7,32.73,35.69,17.47,.49,32.24-11.81,35.2-28.3Z"/>
  <path class="cls-5" d="M69.68,66.38c14.03-13.04,36.18-12.55,49.22,1.48,7.14,7.63,10.34,17.72,9.35,27.32,10.58-13.04,10.09-32.24-1.72-44.79-12.8-13.78-34.46-14.52-48.24-1.48-5.66,5.41-9.11,12.06-10.34,19.2,.49-.49,.98-1.23,1.72-1.72Z"/>
  <path class="cls-6" d="M67.71,68.35c-9.84,.25-19.44-3.45-26.58-11.32-13.04-14.28-12.06-36.18,1.97-49.22,.74-.49,1.23-1.23,1.97-1.72-7.14,.74-14.28,3.69-19.94,8.86-13.78,12.8-14.77,34.46-1.97,48.24,11.57,12.8,30.77,14.52,44.55,5.17Z"/>
  <path class="cls-2" d="M70.17,68.1c19.2,.74,34.46,16.74,33.72,35.93-.25,10.58-5.17,19.69-12.8,25.84,16.74-1.72,30.03-15.51,30.52-32.98,.49-18.95-14.28-34.7-32.98-35.2-7.88-.25-15.01,2.22-20.92,6.4,.74-.25,1.72-.25,2.46,0Z"/>
</svg>